HIERARCHY
ROOT Junyuan_V1:Solving:Hips
{
	OFFSET 0.000000 0.000000 0.000000
	CHANNELS 6 Xposition Yposition Zposition Xrotation Yrotation Zrotation
	JOINT Junyuan_V1:Solving:Spine
	{
		OFFSET 0.000000 -8.943189 2.778120
		CHANNELS 6 Xposition Yposition Zposition Xrotation Yrotation Zrotation
		JOINT Junyuan_V1:Solving:Spine1
		{
			OFFSET 0.000000 -9.944814 1.753542
			CHANNELS 6 Xposition Yposition Zposition Xrotation Yrotation Zrotation
			JOINT Junyuan_V1:Solving:Spine2
			{
				OFFSET 0.000000 -10.059801 0.880121
				CHANNELS 6 Xposition Yposition Zposition Xrotation Yrotation Zrotation
				JOINT Junyuan_V1:Solving:Spine3
				{
					OFFSET 0.000000 -10.098228 0.000000
					CHANNELS 6 Xposition Yposition Zposition Xrotation Yrotation Zrotation
					JOINT Junyuan_V1:Solving:Neck
					{
						OFFSET 0.000000 -12.983437 -1.298342
						CHANNELS 6 Xposition Yposition Zposition Xrotation Yrotation Zrotation
						JOINT Junyuan_V1:Solving:Neck1
						{
							OFFSET 0.000000 -8.085114 -0.707354
							CHANNELS 6 Xposition Yposition Zposition Xrotation Yrotation Zrotation
							JOINT Junyuan_V1:Solving:Head
							{
								OFFSET 0.000000 -7.992695 -1.409326
								CHANNELS 6 Xposition Yposition Zposition Xrotation Yrotation Zrotation
								JOINT Junyuan_V1:Solving:HeadEnd
								{
									OFFSET 0.000000 -9.728081 0.000002
									CHANNELS 6 Xposition Yposition Zposition Xrotation Yrotation Zrotation
									End Site
									{
										OFFSET 0.000000 -9.728081 0.000002
									}
								}
							}
						}
					}
					JOINT Junyuan_V1:Solving:RightShoulder
					{
						OFFSET 0.000000 -9.273884 -6.154356
						CHANNELS 6 Xposition Yposition Zposition Xrotation Yrotation Zrotation
						JOINT Junyuan_V1:Solving:RightArm
						{
							OFFSET -19.110832 -0.000008 0.000000
							CHANNELS 6 Xposition Yposition Zposition Xrotation Yrotation Zrotation
							JOINT Junyuan_V1:Solving:RightForeArm
							{
								OFFSET -27.916382 -0.000008 0.000000
								CHANNELS 6 Xposition Yposition Zposition Xrotation Yrotation Zrotation
								JOINT Junyuan_V1:Solving:RightHand
								{
									OFFSET -21.757072 -0.000008 0.000000
									CHANNELS 6 Xposition Yposition Zposition Xrotation Yrotation Zrotation
									JOINT Junyuan_V1:Solving:RightHandThumb1
									{
										OFFSET -3.656471 2.766285 -2.718907
										CHANNELS 6 Xposition Yposition Zposition Xrotation Yrotation Zrotation
										End Site
										{
											OFFSET -5.307442 0.000000 -5.356520
										}
									}
									JOINT Junyuan_V1:Solving:RightHandMiddle1
									{
										OFFSET -9.750572 -0.000004 0.062504
										CHANNELS 6 Xposition Yposition Zposition Xrotation Yrotation Zrotation
										End Site
										{
											OFFSET -7.540642 -0.000004 0.000000
										}
									}
								}
							}
						}
					}
					JOINT Junyuan_V1:Solving:LeftShoulder
					{
						OFFSET 0.000000 -9.273884 -6.154356
						CHANNELS 6 Xposition Yposition Zposition Xrotation Yrotation Zrotation
						JOINT Junyuan_V1:Solving:LeftArm
						{
							OFFSET 19.110832 -0.000008 0.000000
							CHANNELS 6 Xposition Yposition Zposition Xrotation Yrotation Zrotation
							JOINT Junyuan_V1:Solving:LeftForeArm
							{
								OFFSET 27.916382 -0.000008 0.000000
								CHANNELS 6 Xposition Yposition Zposition Xrotation Yrotation Zrotation
								JOINT Junyuan_V1:Solving:LeftHand
								{
									OFFSET 21.757072 -0.000008 0.000000
									CHANNELS 6 Xposition Yposition Zposition Xrotation Yrotation Zrotation
									JOINT Junyuan_V1:Solving:LeftHandThumb1
									{
										OFFSET 3.656471 2.766285 -2.718907
										CHANNELS 6 Xposition Yposition Zposition Xrotation Yrotation Zrotation
										End Site
										{
											OFFSET 5.307442 0.000000 -5.356520
										}
									}
									JOINT Junyuan_V1:Solving:LeftHandMiddle1
									{
										OFFSET 9.750572 -0.000004 0.062504
										CHANNELS 6 Xposition Yposition Zposition Xrotation Yrotation Zrotation
										End Site
										{
											OFFSET 7.540642 -0.000004 0.000000
										}
									}
								}
							}
						}
					}
				}
			}
		}
	}
	JOINT Junyuan_V1:Solving:RightUpLeg
	{
		OFFSET -8.521003 0.000000 0.000000
		CHANNELS 6 Xposition Yposition Zposition Xrotation Yrotation Zrotation
		JOINT Junyuan_V1:Solving:RightLeg
		{
			OFFSET 0.000000 41.622898 -0.000006
			CHANNELS 6 Xposition Yposition Zposition Xrotation Yrotation Zrotation
			JOINT Junyuan_V1:Solving:RightFoot
			{
				OFFSET 0.000000 37.258389 -0.000006
				CHANNELS 6 Xposition Yposition Zposition Xrotation Yrotation Zrotation
				JOINT Junyuan_V1:Solving:RightForeFoot
				{
					OFFSET 0.000000 3.234154 -0.000000
					CHANNELS 6 Xposition Yposition Zposition Xrotation Yrotation Zrotation
					JOINT Junyuan_V1:Solving:RightToeBase
					{
						OFFSET 0.000000 0.000000 -12.665958
						CHANNELS 6 Xposition Yposition Zposition Xrotation Yrotation Zrotation
						JOINT Junyuan_V1:Solving:RightToeBaseEnd
						{
							OFFSET 0.000000 0.000000 -2.833065
							CHANNELS 6 Xposition Yposition Zposition Xrotation Yrotation Zrotation
							End Site
							{
								OFFSET 0.000000 -2.833061 0.000002
							}
						}
					}
				}
			}
		}
	}
	JOINT Junyuan_V1:Solving:LeftUpLeg
	{
		OFFSET 8.521003 0.000000 0.000000
		CHANNELS 6 Xposition Yposition Zposition Xrotation Yrotation Zrotation
		JOINT Junyuan_V1:Solving:LeftLeg
		{
			OFFSET 0.000000 41.622898 -0.000006
			CHANNELS 6 Xposition Yposition Zposition Xrotation Yrotation Zrotation
			JOINT Junyuan_V1:Solving:LeftFoot
			{
				OFFSET 0.000000 37.258389 -0.000006
				CHANNELS 6 Xposition Yposition Zposition Xrotation Yrotation Zrotation
				JOINT Junyuan_V1:Solving:LeftForeFoot
				{
					OFFSET 0.000000 3.234154 -0.000000
					CHANNELS 6 Xposition Yposition Zposition Xrotation Yrotation Zrotation
					JOINT Junyuan_V1:Solving:LeftToeBase
					{
						OFFSET 0.000000 0.000000 -12.665958
						CHANNELS 6 Xposition Yposition Zposition Xrotation Yrotation Zrotation
						JOINT Junyuan_V1:Solving:LeftToeBaseEnd
						{
							OFFSET 0.000000 0.000000 -4.326123
							CHANNELS 6 Xposition Yposition Zposition Xrotation Yrotation Zrotation
							End Site
							{
								OFFSET 0.000000 -4.326126 0.000000
							}
						}
					}
				}
			}
		}
	}
}
MOTION
Frames: 5
Frame Time: 0.041667
-19.167614 -6.484745 -87.979530 87.791830 174.452881 2.710074 0.000002 -8.943198 2.778120 11.073614 0.505984 -0.571614 0.000001 -9.944800 1.753541 -0.924923 0.200716 -0.196137 0.000001 -10.059806 0.880118 -4.516040 3.466579 -0.765052 -0.000004 -10.098233 0.000002 -2.893187 0.877470 0.382490 0.000000 -12.983425 -1.298336 2.349272 0.958472 4.803728 0.000005 -8.085100 -0.707362 -6.390112 3.161440 -0.955061 -0.000001 -7.992719 -1.409328 -5.068047 1.204023 -2.373990 0.000006 -9.728104 0.000006 0.000001 0.000001 0.000000 -0.000001 -9.273857 -6.154348 -0.000007 11.675181 22.018522 -19.110830 -0.000043 0.000011 -45.078186 -28.647430 -112.223812 -27.916365 -0.000005 -0.000005 84.645845 -47.285871 82.730885 -21.757076 -0.000013 0.000008 -23.929752 46.031800 31.656687 -3.656477 2.766274 -2.718898 -0.000007 0.000002 -0.000007 -9.750604 -0.000007 0.062526 -0.000003 0.000000 -0.000001 0.000005 -9.273876 -6.154347 -0.000006 -8.094337 -14.937555 19.110811 0.000002 0.000011 -54.191605 36.870673 115.080724 27.916374 0.000002 -0.000008 -60.359529 34.852160 45.122934 21.757072 -0.000007 -0.000016 0.125321 5.779311 -1.244335 3.656481 2.766287 -2.718934 -0.000008 -0.000002 0.000012 9.750584 0.000017 0.062470 -0.000003 -0.000003 0.000004 -8.521002 0.000002 -0.000001 -2.227082 9.880600 -1.095827 -0.000003 41.622875 -0.000009 -0.651743 0.000000 0.000000 -0.000000 37.258381 -0.000007 8.008305 -0.952086 3.072674 -0.000001 3.234146 0.000000 -0.000001 0.000000 -0.000000 -0.000000 -0.000009 -12.665955 -4.245903 -0.000000 -0.000001 -0.000002 -0.000008 -2.833068 -0.000000 -0.000000 -0.000000 8.521008 -0.000021 0.000001 1.320689 -9.019077 -11.388862 0.000001 41.622913 -0.000006 -0.266512 -0.000002 0.000001 0.000009 37.258396 -0.000007 5.613389 7.079795 10.695472 0.000004 3.234146 -0.000001 -0.000001 0.000000 0.000000 0.000009 -0.000015 -12.665961 3.575348 0.000002 -0.000002 -0.000001 -0.000008 -4.326126 -0.000001 0.000000 -0.000000 
-19.168690 -6.519421 -87.975868 87.816835 174.382543 2.699677 -0.000004 -8.943211 2.778119 11.051711 0.504927 -0.552308 0.000003 -9.944841 1.753548 -0.926737 0.200426 -0.194270 0.000004 -10.059798 0.880117 -4.521731 3.489162 -0.765708 -0.000001 -10.098224 0.000001 -2.876192 0.882330 0.380151 -0.000003 -12.983418 -1.298347 2.396675 0.974705 4.847419 0.000002 -8.085113 -0.707346 -6.372405 3.187512 -0.989592 0.000000 -7.992664 -1.409321 -5.059987 1.220223 -2.408592 0.000002 -9.728043 0.000004 -0.000000 -0.000000 -0.000001 -0.000014 -9.273876 -6.154363 -0.000003 11.691220 21.902386 -19.110821 -0.000008 0.000009 -45.177347 -29.385509 -112.074054 -27.916380 -0.000004 -0.000001 84.959535 -46.741163 83.094517 -21.757088 -0.000023 0.000000 -24.215833 46.711875 31.710267 -3.656479 2.766279 -2.718887 -0.000000 0.000002 -0.000000 -9.750587 -0.000002 0.062530 0.000002 0.000001 -0.000000 -0.000002 -9.273895 -6.154362 -0.000001 -8.122862 -14.853498 19.110819 0.000028 0.000012 -54.507310 38.108156 115.204541 27.916376 -0.000021 0.000001 -55.796420 38.518350 42.497393 21.757086 -0.000019 0.000019 -0.179381 6.127822 1.679930 3.656492 2.766282 -2.718897 -0.000003 -0.000012 0.000006 9.750579 0.000009 0.062493 -0.000006 -0.000001 -0.000001 -8.521007 -0.000014 -0.000000 -2.174472 10.035208 -1.087561 0.000001 41.622910 -0.000006 -0.636871 -0.000000 0.000000 0.000001 37.258404 -0.000006 7.960912 -1.046081 3.100125 -0.000002 3.234146 -0.000001 0.000001 -0.000000 -0.000001 0.000000 -0.000002 -12.665955 -4.275946 0.000001 -0.000000 -0.000001 -0.000007 -2.833066 0.000000 -0.000000 -0.000001 8.520999 -0.000017 -0.000000 1.338356 -9.029620 -11.386817 -0.000003 41.622887 -0.000007 -0.240702 -0.000004 -0.000002 -0.000001 37.258400 -0.000007 5.592480 7.145780 10.712411 -0.000007 3.234146 -0.000001 0.000001 0.000001 -0.000000 -0.000005 -0.000001 -12.665960 3.572990 -0.000001 -0.000000 0.000006 -0.000016 -4.326127 -0.000002 -0.000000 -0.000000 
-19.171177 -6.555807 -87.974457 87.847714 174.307780 2.703922 0.000002 -8.943186 2.778116 11.029088 0.505631 -0.554557 -0.000002 -9.944823 1.753543 -0.928658 0.201874 -0.195257 0.000001 -10.059801 0.880119 -4.521747 3.515801 -0.767345 -0.000005 -10.098228 -0.000002 -2.856177 0.887165 0.371385 -0.000003 -12.983447 -1.298339 2.415544 0.982927 4.866637 0.000001 -8.085135 -0.707355 -6.336832 3.197917 -0.978565 -0.000005 -7.992646 -1.409321 -5.009925 1.217316 -2.402797 0.000002 -9.728050 0.000005 -0.000001 0.000001 0.000000 -0.000005 -9.273895 -6.154353 -0.000004 11.686291 21.737413 -19.110828 -0.000006 0.000010 -45.087810 -30.293678 -111.978766 -27.916384 -0.000002 0.000005 84.331150 -48.214483 82.417038 -21.757088 -0.000007 -0.000000 -24.447511 47.051667 31.844108 -3.656450 2.766291 -2.718896 -0.000002 -0.000012 -0.000003 -9.750565 -0.000017 0.062507 0.000001 -0.000001 -0.000000 0.000002 -9.273914 -6.154354 -0.000002 -8.096202 -14.713158 19.110826 0.000015 0.000009 -54.507628 38.615315 115.308264 27.916389 -0.000010 0.000007 -64.329611 30.902556 46.898080 21.757063 -0.000008 0.000027 0.401772 6.089906 -3.781662 3.656477 2.766288 -2.718902 -0.000002 0.000003 0.000008 9.750565 -0.000003 0.062515 0.000003 -0.000002 0.000000 -8.521000 0.000005 -0.000004 -2.124781 10.121776 -1.091674 0.000000 41.622910 -0.000007 -0.599568 0.000000 -0.000000 0.000001 37.258385 -0.000003 7.912565 -1.059527 3.100988 -0.000001 3.234146 -0.000001 0.000000 0.000001 0.000000 -0.000001 -0.000008 -12.665956 -4.271335 0.000001 -0.000000 -0.000002 -0.000008 -2.833063 -0.000000 -0.000000 -0.000000 8.521006 0.000006 -0.000005 1.364286 -9.023843 -11.398458 -0.000002 41.622883 -0.000008 -0.217809 -0.000001 0.000000 0.000015 37.258373 -0.000005 5.575331 7.201861 10.710175 -0.000000 3.234146 0.000000 0.000001 -0.000001 -0.000001 -0.000000 -0.000005 -12.665957 3.535768 -0.000000 0.000000 0.000003 -0.000008 -4.326124 -0.000001 0.000001 -0.000000 
-19.173334 -6.593426 -87.974098 87.892131 174.235366 2.706215 -0.000002 -8.943180 2.778111 11.014300 0.503330 -0.560077 0.000002 -9.944818 1.753543 -0.925670 0.202097 -0.193105 -0.000001 -10.059798 0.880119 -4.516297 3.546069 -0.771912 0.000000 -10.098214 0.000003 -2.831736 0.897142 0.358943 0.000001 -12.983433 -1.298328 2.421361 0.990874 4.908228 0.000003 -8.085139 -0.707365 -6.304929 3.223947 -0.980610 -0.000005 -7.992682 -1.409328 -4.961643 1.216476 -2.399159 -0.000002 -9.728073 -0.000001 0.000000 0.000001 -0.000000 -0.000011 -9.273876 -6.154339 -0.000008 11.687861 21.665611 -19.110807 -0.000034 0.000009 -44.763014 -30.278761 -112.224933 -27.916388 0.000003 -0.000003 83.987578 -47.442330 81.862618 -21.757067 -0.000019 0.000007 -24.544838 46.666212 32.122264 -3.656487 2.766269 -2.718909 0.000001 -0.000003 -0.000001 -9.750580 -0.000016 0.062492 0.000001 -0.000002 0.000001 -0.000003 -9.273880 -6.154340 -0.000007 -8.059249 -14.543897 19.110821 -0.000020 0.000012 -54.580332 39.472746 115.403368 27.916357 -0.000013 -0.000006 -66.415872 28.378710 47.432563 21.757067 -0.000021 -0.000010 0.574961 6.647745 -4.954309 3.656477 2.766294 -2.718924 0.000001 0.000005 -0.000001 9.750574 -0.000001 0.062485 -0.000007 0.000002 -0.000006 -8.521003 0.000019 -0.000009 -2.074432 10.183845 -1.093318 0.000001 41.622913 -0.000008 -0.536337 -0.000000 0.000000 0.000000 37.258396 -0.000003 7.858610 -1.044599 3.095364 -0.000001 3.234161 0.000000 0.000001 -0.000000 -0.000000 -0.000000 -0.000013 -12.665957 -4.278419 0.000001 -0.000001 0.000001 -0.000008 -2.833067 -0.000000 -0.000000 0.000000 8.521006 -0.000002 -0.000009 1.401862 -9.016060 -11.409793 0.000001 41.622917 -0.000005 -0.187925 0.000003 -0.000001 0.000004 37.258392 -0.000008 5.546916 7.246984 10.705266 0.000005 3.234154 -0.000001 -0.000001 -0.000001 -0.000001 0.000003 0.000001 -12.665958 3.532265 0.000000 -0.000000 -0.000005 -0.000001 -4.326122 -0.000002 -0.000000 0.000000 
-19.177048 -6.634350 -87.968346 87.945406 174.170029 2.701168 -0.000001 -8.943194 2.778124 10.996295 0.503517 -0.558358 0.000000 -9.944791 1.753538 -0.924774 0.201623 -0.193072 0.000002 -10.059792 0.880122 -4.502179 3.568703 -0.773546 -0.000002 -10.098224 -0.000003 -2.793703 0.903152 0.350756 0.000003 -12.983386 -1.298330 2.402859 1.011176 4.935623 0.000001 -8.085124 -0.707357 -6.285481 3.268430 -0.978920 0.000005 -7.992688 -1.409323 -4.889825 1.217022 -2.396656 -0.000003 -9.728043 -0.000002 -0.000000 0.000000 -0.000000 -0.000001 -9.273895 -6.154341 -0.000010 11.663788 21.502204 -19.110809 0.000029 0.000007 -44.499949 -30.935259 -112.190331 -27.916380 -0.000005 0.000010 83.406807 -47.551726 81.097466 -21.757076 -0.000014 -0.000001 -24.766975 46.330447 32.530999 -3.656476 2.766293 -2.718900 -0.000009 -0.000000 -0.000006 -9.750566 0.000012 0.062509 -0.000007 -0.000004 -0.000003 0.000001 -9.273899 -6.154341 -0.000009 -7.991612 -14.360710 19.110815 0.000011 0.000009 -54.648709 40.146640 115.668297 27.916361 -0.000012 0.000011 -67.673385 26.491700 47.365719 21.757086 -0.000018 -0.000018 0.755060 7.418417 -5.828155 3.656485 2.766283 -2.718891 -0.000003 -0.000012 0.000007 9.750587 -0.000004 0.062526 0.000001 0.000002 -0.000000 -8.521001 -0.000018 0.000005 -2.019797 10.241233 -1.086732 -0.000003 41.622906 -0.000006 -0.461138 -0.000001 0.000000 -0.000000 37.258389 -0.000003 7.768555 -1.042800 3.099083 -0.000004 3.234146 -0.000002 -0.000000 0.000000 0.000000 -0.000004 0.000001 -12.665959 -4.216166 0.000001 -0.000000 -0.000001 -0.000007 -2.833061 0.000001 -0.000000 -0.000000 8.521002 -0.000001 0.000005 1.453238 -9.022321 -11.413637 0.000002 41.622906 -0.000007 -0.161484 -0.000003 -0.000001 -0.000002 37.258415 -0.000004 5.497702 7.289842 10.701014 0.000003 3.234146 -0.000000 0.000001 -0.000001 -0.000000 0.000003 -0.000008 -12.665957 3.568119 0.000000 0.000000 -0.000001 -0.000016 -4.326128 -0.000001 0.000000 -0.000000 
